# xmcd
#
# Track frame offsets: 
#        150
#        16640
#        36042
#
# Disc length: 698 seconds
#
# Revision: 2
# Processed by: cddbd v1.5.2PL0 Copyright (c) Steve Scherf et al.
# Submitted via: ExactAudioCopyFreeDBPlugin 1.0
#
DISCID=1302b803
DTITLE=FENCE OF DEFENSE - 遥か～SAILING FOR MY DREAM～
DYEAR=1996
DGENRE=Anime
TTITLE0=遥か～SAILING FOR MY DREAM～
TTITLE1=RIGHT NOW
TTITLE2=オリジナル・カラオケ - 遥か～SAILING FOR MY DREAM～（オリジナル・カラオケ）
EXTD=YEAR: 1996
EXTT0=
EXTT1=
EXTT2=
PLAYORDER=
